<svg class="floating-paths" viewBox="0 0 696 316" fill="none" preserveAspectRatio="xMidYMid slice" aria-hidden="true">
  <path pathLength="1" d="M-380 -189C-380 -189 -312 216 152 343C616 470 684 875 684 875" stroke="currentColor" stroke-width="0.50" stroke-opacity="0.100" fill="none" stroke-dasharray="0.3 0.7" stroke-dashoffset="0">
    <animate attributeName="stroke-dashoffset" values="0;-1" dur="22.8s" repeatCount="indefinite"/>
    <animate attributeName="stroke-opacity" values="0.050;0.100;0.050" dur="22.8s" repeatCount="indefinite"/>
  </path>
  <path pathLength="1" d="M-385 -195C-385 -195 -317 210 157 337C621 464 689 869 689 869" stroke="currentColor" stroke-width="0.53" stroke-opacity="0.130" fill="none" stroke-dasharray="0.3 0.7" stroke-dashoffset="0">
    <animate attributeName="stroke-dashoffset" values="0;-1" dur="23.1s" repeatCount="indefinite"/>
    <animate attributeName="stroke-opacity" values="0.065;0.130;0.065" dur="23.1s" repeatCount="indefinite"/>
  </path>
  <path pathLength="1" d="M-390 -201C-390 -201 -322 204 162 331C626 458 694 863 694 863" stroke="currentColor" stroke-width="0.56" stroke-opacity="0.160" fill="none" stroke-dasharray="0.3 0.7" stroke-dashoffset="0">
    <animate attributeName="stroke-dashoffset" values="0;-1" dur="28.6s" repeatCount="indefinite"/>
    <animate attributeName="stroke-opacity" values="0.080;0.160;0.080" dur="28.6s" repeatCount="indefinite"/>
  </path>
  <path pathLength="1" d="M-395 -207C-395 -207 -327 198 167 325C631 452 699 857 699 857" stroke="currentColor" stroke-width="0.59" stroke-opacity="0.190" fill="none" stroke-dasharray="0.3 0.7" stroke-dashoffset="0">
    <animate attributeName="stroke-dashoffset" values="0;-1" dur="29.5s" repeatCount="indefinite"/>
    <animate attributeName="stroke-opacity" values="0.095;0.190;0.095" dur="29.5s" repeatCount="indefinite"/>
  </path>
  <path pathLength="1" d="M-400 -213C-400 -213 -332 192 172 319C636 446 704 851 704 851" stroke="currentColor" stroke-width="0.62" stroke-opacity="0.220" fill="none" stroke-dasharray="0.3 0.7" stroke-dashoffset="0">
    <animate attributeName="stroke-dashoffset" values="0;-1" dur="24.9s" repeatCount="indefinite"/>
    <animate attributeName="stroke-opacity" values="0.110;0.220;0.110" dur="24.9s" repeatCount="indefinite"/>
  </path>
  <path pathLength="1" d="M-405 -219C-405 -219 -337 186 177 313C641 440 709 845 709 845" stroke="currentColor" stroke-width="0.65" stroke-opacity="0.250" fill="none" stroke-dasharray="0.3 0.7" stroke-dashoffset="0">
    <animate attributeName="stroke-dashoffset" values="0;-1" dur="29.9s" repeatCount="indefinite"/>
    <animate attributeName="stroke-opacity" values="0.125;0.250;0.125" dur="29.9s" repeatCount="indefinite"/>
  </path>
  <path pathLength="1" d="M-410 -225C-410 -225 -342 180 182 307C646 434 714 839 714 839" stroke="currentColor" stroke-width="0.68" stroke-opacity="0.280" fill="none" stroke-dasharray="0.3 0.7" stroke-dashoffset="0">
    <animate attributeName="stroke-dashoffset" values="0;-1" dur="28.8s" repeatCount="indefinite"/>
    <animate attributeName="stroke-opacity" values="0.140;0.280;0.140" dur="28.8s" repeatCount="indefinite"/>
  </path>
  <path pathLength="1" d="M-415 -231C-415 -231 -347 174 187 301C651 428 719 833 719 833" stroke="currentColor" stroke-width="0.71" stroke-opacity="0.310" fill="none" stroke-dasharray="0.3 0.7" stroke-dashoffset="0">
    <animate attributeName="stroke-dashoffset" values="0;-1" dur="23.7s" repeatCount="indefinite"/>
    <animate attributeName="stroke-opacity" values="0.155;0.310;0.155" dur="23.7s" repeatCount="indefinite"/>
  </path>
  <path pathLength="1" d="M-420 -237C-420 -237 -352 168 192 295C656 422 724 827 724 827" stroke="currentColor" stroke-width="0.74" stroke-opacity="0.340" fill="none" stroke-dasharray="0.3 0.7" stroke-dashoffset="0">
    <animate attributeName="stroke-dashoffset" values="0;-1" dur="26.2s" repeatCount="indefinite"/>
    <animate attributeName="stroke-opacity" values="0.170;0.340;0.170" dur="26.2s" repeatCount="indefinite"/>
  </path>
  <path pathLength="1" d="M-425 -243C-425 -243 -357 162 197 289C661 416 729 821 729 821" stroke="currentColor" stroke-width="0.77" stroke-opacity="0.370" fill="none" stroke-dasharray="0.3 0.7" stroke-dashoffset="0">
    <animate attributeName="stroke-dashoffset" values="0;-1" dur="28.0s" repeatCount="indefinite"/>
    <animate attributeName="stroke-opacity" values="0.185;0.370;0.185" dur="28.0s" repeatCount="indefinite"/>
  </path>
  <path pathLength="1" d="M-430 -249C-430 -249 -362 156 202 283C666 410 734 815 734 815" stroke="currentColor" stroke-width="0.80" stroke-opacity="0.400" fill="none" stroke-dasharray="0.3 0.7" stroke-dashoffset="0">
    <animate attributeName="stroke-dashoffset" values="0;-1" dur="20.7s" repeatCount="indefinite"/>
    <animate attributeName="stroke-opacity" values="0.200;0.400;0.200" dur="20.7s" repeatCount="indefinite"/>
  </path>
  <path pathLength="1" d="M-435 -255C-435 -255 -367 150 207 277C671 404 739 809 739 809" stroke="currentColor" stroke-width="0.83" stroke-opacity="0.430" fill="none" stroke-dasharray="0.3 0.7" stroke-dashoffset="0">
    <animate attributeName="stroke-dashoffset" values="0;-1" dur="20.9s" repeatCount="indefinite"/>
    <animate attributeName="stroke-opacity" values="0.215;0.430;0.215" dur="20.9s" repeatCount="indefinite"/>
  </path>
  <path pathLength="1" d="M-440 -261C-440 -261 -372 144 212 271C676 398 744 803 744 803" stroke="currentColor" stroke-width="0.86" stroke-opacity="0.460" fill="none" stroke-dasharray="0.3 0.7" stroke-dashoffset="0">
    <animate attributeName="stroke-dashoffset" values="0;-1" dur="25.9s" repeatCount="indefinite"/>
    <animate attributeName="stroke-opacity" values="0.230;0.460;0.230" dur="25.9s" repeatCount="indefinite"/>
  </path>
  <path pathLength="1" d="M-445 -267C-445 -267 -377 138 217 265C681 392 749 797 749 797" stroke="currentColor" stroke-width="0.89" stroke-opacity="0.490" fill="none" stroke-dasharray="0.3 0.7" stroke-dashoffset="0">
    <animate attributeName="stroke-dashoffset" values="0;-1" dur="20.1s" repeatCount="indefinite"/>
    <animate attributeName="stroke-opacity" values="0.245;0.490;0.245" dur="20.1s" repeatCount="indefinite"/>
  </path>
  <path pathLength="1" d="M-450 -273C-450 -273 -382 132 222 259C686 386 754 791 754 791" stroke="currentColor" stroke-width="0.92" stroke-opacity="0.520" fill="none" stroke-dasharray="0.3 0.7" stroke-dashoffset="0">
    <animate attributeName="stroke-dashoffset" values="0;-1" dur="27.6s" repeatCount="indefinite"/>
    <animate attributeName="stroke-opacity" values="0.260;0.520;0.260" dur="27.6s" repeatCount="indefinite"/>
  </path>
  <path pathLength="1" d="M-455 -279C-455 -279 -387 126 227 253C691 380 759 785 759 785" stroke="currentColor" stroke-width="0.95" stroke-opacity="0.550" fill="none" stroke-dasharray="0.3 0.7" stroke-dashoffset="0">
    <animate attributeName="stroke-dashoffset" values="0;-1" dur="23.5s" repeatCount="indefinite"/>
    <animate attributeName="stroke-opacity" values="0.275;0.550;0.275" dur="23.5s" repeatCount="indefinite"/>
  </path>
  <path pathLength="1" d="M-460 -285C-460 -285 -392 120 232 247C696 374 764 779 764 779" stroke="currentColor" stroke-width="0.98" stroke-opacity="0.580" fill="none" stroke-dasharray="0.3 0.7" stroke-dashoffset="0">
    <animate attributeName="stroke-dashoffset" values="0;-1" dur="21.8s" repeatCount="indefinite"/>
    <animate attributeName="stroke-opacity" values="0.290;0.580;0.290" dur="21.8s" repeatCount="indefinite"/>
  </path>
  <path pathLength="1" d="M-465 -291C-465 -291 -397 114 237 241C701 368 769 773 769 773" stroke="currentColor" stroke-width="1.01" stroke-opacity="0.610" fill="none" stroke-dasharray="0.3 0.7" stroke-dashoffset="0">
    <animate attributeName="stroke-dashoffset" values="0;-1" dur="20.3s" repeatCount="indefinite"/>
    <animate attributeName="stroke-opacity" values="0.305;0.610;0.305" dur="20.3s" repeatCount="indefinite"/>
  </path>
  <path pathLength="1" d="M-470 -297C-470 -297 -402 108 242 235C706 362 774 767 774 767" stroke="currentColor" stroke-width="1.04" stroke-opacity="0.640" fill="none" stroke-dasharray="0.3 0.7" stroke-dashoffset="0">
    <animate attributeName="stroke-dashoffset" values="0;-1" dur="29.5s" repeatCount="indefinite"/>
    <animate attributeName="stroke-opacity" values="0.320;0.640;0.320" dur="29.5s" repeatCount="indefinite"/>
  </path>
  <path pathLength="1" d="M-475 -303C-475 -303 -407 102 247 229C711 356 779 761 779 761" stroke="currentColor" stroke-width="1.07" stroke-opacity="0.670" fill="none" stroke-dasharray="0.3 0.7" stroke-dashoffset="0">
    <animate attributeName="stroke-dashoffset" values="0;-1" dur="29.4s" repeatCount="indefinite"/>
    <animate attributeName="stroke-opacity" values="0.335;0.670;0.335" dur="29.4s" repeatCount="indefinite"/>
  </path>
  <path pathLength="1" d="M-480 -309C-480 -309 -412 96 252 223C716 350 784 755 784 755" stroke="currentColor" stroke-width="1.10" stroke-opacity="0.700" fill="none" stroke-dasharray="0.3 0.7" stroke-dashoffset="0">
    <animate attributeName="stroke-dashoffset" values="0;-1" dur="26.3s" repeatCount="indefinite"/>
    <animate attributeName="stroke-opacity" values="0.350;0.700;0.350" dur="26.3s" repeatCount="indefinite"/>
  </path>
  <path pathLength="1" d="M-485 -315C-485 -315 -417 90 257 217C721 344 789 749 789 749" stroke="currentColor" stroke-width="1.13" stroke-opacity="0.730" fill="none" stroke-dasharray="0.3 0.7" stroke-dashoffset="0">
    <animate attributeName="stroke-dashoffset" values="0;-1" dur="28.4s" repeatCount="indefinite"/>
    <animate attributeName="stroke-opacity" values="0.365;0.730;0.365" dur="28.4s" repeatCount="indefinite"/>
  </path>
  <path pathLength="1" d="M-490 -321C-490 -321 -422 84 262 211C726 338 794 743 794 743" stroke="currentColor" stroke-width="1.16" stroke-opacity="0.760" fill="none" stroke-dasharray="0.3 0.7" stroke-dashoffset="0">
    <animate attributeName="stroke-dashoffset" values="0;-1" dur="24.4s" repeatCount="indefinite"/>
    <animate attributeName="stroke-opacity" values="0.380;0.760;0.380" dur="24.4s" repeatCount="indefinite"/>
  </path>
  <path pathLength="1" d="M-495 -327C-495 -327 -427 78 267 205C731 332 799 737 799 737" stroke="currentColor" stroke-width="1.19" stroke-opacity="0.790" fill="none" stroke-dasharray="0.3 0.7" stroke-dashoffset="0">
    <animate attributeName="stroke-dashoffset" values="0;-1" dur="25.2s" repeatCount="indefinite"/>
    <animate attributeName="stroke-opacity" values="0.395;0.790;0.395" dur="25.2s" repeatCount="indefinite"/>
  </path>
  <path pathLength="1" d="M-500 -333C-500 -333 -432 72 272 199C736 326 804 731 804 731" stroke="currentColor" stroke-width="1.22" stroke-opacity="0.820" fill="none" stroke-dasharray="0.3 0.7" stroke-dashoffset="0">
    <animate attributeName="stroke-dashoffset" values="0;-1" dur="29.8s" repeatCount="indefinite"/>
    <animate attributeName="stroke-opacity" values="0.410;0.820;0.410" dur="29.8s" repeatCount="indefinite"/>
  </path>
  <path pathLength="1" d="M-505 -339C-505 -339 -437 66 277 193C741 320 809 725 809 725" stroke="currentColor" stroke-width="1.25" stroke-opacity="0.850" fill="none" stroke-dasharray="0.3 0.7" stroke-dashoffset="0">
    <animate attributeName="stroke-dashoffset" values="0;-1" dur="28.5s" repeatCount="indefinite"/>
    <animate attributeName="stroke-opacity" values="0.425;0.850;0.425" dur="28.5s" repeatCount="indefinite"/>
  </path>
  <path pathLength="1" d="M-510 -345C-510 -345 -442 60 282 187C746 314 814 719 814 719" stroke="currentColor" stroke-width="1.28" stroke-opacity="0.880" fill="none" stroke-dasharray="0.3 0.7" stroke-dashoffset="0">
    <animate attributeName="stroke-dashoffset" values="0;-1" dur="29.9s" repeatCount="indefinite"/>
    <animate attributeName="stroke-opacity" values="0.440;0.880;0.440" dur="29.9s" repeatCount="indefinite"/>
  </path>
  <path pathLength="1" d="M-515 -351C-515 -351 -447 54 287 181C751 308 819 713 819 713" stroke="currentColor" stroke-width="1.31" stroke-opacity="0.910" fill="none" stroke-dasharray="0.3 0.7" stroke-dashoffset="0">
    <animate attributeName="stroke-dashoffset" values="0;-1" dur="24.6s" repeatCount="indefinite"/>
    <animate attributeName="stroke-opacity" values="0.455;0.910;0.455" dur="24.6s" repeatCount="indefinite"/>
  </path>
  <path pathLength="1" d="M-520 -357C-520 -357 -452 48 292 175C756 302 824 707 824 707" stroke="currentColor" stroke-width="1.34" stroke-opacity="0.940" fill="none" stroke-dasharray="0.3 0.7" stroke-dashoffset="0">
    <animate attributeName="stroke-dashoffset" values="0;-1" dur="23.1s" repeatCount="indefinite"/>
    <animate attributeName="stroke-opacity" values="0.470;0.940;0.470" dur="23.1s" repeatCount="indefinite"/>
  </path>
  <path pathLength="1" d="M-525 -363C-525 -363 -457 42 297 169C761 296 829 701 829 701" stroke="currentColor" stroke-width="1.37" stroke-opacity="0.970" fill="none" stroke-dasharray="0.3 0.7" stroke-dashoffset="0">
    <animate attributeName="stroke-dashoffset" values="0;-1" dur="23.4s" repeatCount="indefinite"/>
    <animate attributeName="stroke-opacity" values="0.485;0.970;0.485" dur="23.4s" repeatCount="indefinite"/>
  </path>
  <path pathLength="1" d="M-530 -369C-530 -369 -462 36 302 163C766 290 834 695 834 695" stroke="currentColor" stroke-width="1.40" stroke-opacity="1.000" fill="none" stroke-dasharray="0.3 0.7" stroke-dashoffset="0">
    <animate attributeName="stroke-dashoffset" values="0;-1" dur="27.4s" repeatCount="indefinite"/>
    <animate attributeName="stroke-opacity" values="0.500;1.000;0.500" dur="27.4s" repeatCount="indefinite"/>
  </path>
  <path pathLength="1" d="M-535 -375C-535 -375 -467 30 307 157C771 284 839 689 839 689" stroke="currentColor" stroke-width="1.43" stroke-opacity="1.030" fill="none" stroke-dasharray="0.3 0.7" stroke-dashoffset="0">
    <animate attributeName="stroke-dashoffset" values="0;-1" dur="25.6s" repeatCount="indefinite"/>
    <animate attributeName="stroke-opacity" values="0.515;1.030;0.515" dur="25.6s" repeatCount="indefinite"/>
  </path>
  <path pathLength="1" d="M-540 -381C-540 -381 -472 24 312 151C776 278 844 683 844 683" stroke="currentColor" stroke-width="1.46" stroke-opacity="1.060" fill="none" stroke-dasharray="0.3 0.7" stroke-dashoffset="0">
    <animate attributeName="stroke-dashoffset" values="0;-1" dur="22.6s" repeatCount="indefinite"/>
    <animate attributeName="stroke-opacity" values="0.530;1.060;0.530" dur="22.6s" repeatCount="indefinite"/>
  </path>
  <path pathLength="1" d="M-545 -387C-545 -387 -477 18 317 145C781 272 849 677 849 677" stroke="currentColor" stroke-width="1.49" stroke-opacity="1.090" fill="none" stroke-dasharray="0.3 0.7" stroke-dashoffset="0">
    <animate attributeName="stroke-dashoffset" values="0;-1" dur="28.8s" repeatCount="indefinite"/>
    <animate attributeName="stroke-opacity" values="0.545;1.090;0.545" dur="28.8s" repeatCount="indefinite"/>
  </path>
  <path pathLength="1" d="M-550 -393C-550 -393 -482 12 322 139C786 266 854 671 854 671" stroke="currentColor" stroke-width="1.52" stroke-opacity="1.120" fill="none" stroke-dasharray="0.3 0.7" stroke-dashoffset="0">
    <animate attributeName="stroke-dashoffset" values="0;-1" dur="24.7s" repeatCount="indefinite"/>
    <animate attributeName="stroke-opacity" values="0.560;1.120;0.560" dur="24.7s" repeatCount="indefinite"/>
  </path>
  <path pathLength="1" d="M-555 -399C-555 -399 -487 6 327 133C791 260 859 665 859 665" stroke="currentColor" stroke-width="1.55" stroke-opacity="1.150" fill="none" stroke-dasharray="0.3 0.7" stroke-dashoffset="0">
    <animate attributeName="stroke-dashoffset" values="0;-1" dur="26.2s" repeatCount="indefinite"/>
    <animate attributeName="stroke-opacity" values="0.575;1.150;0.575" dur="26.2s" repeatCount="indefinite"/>
  </path>
</svg>